<mxfile host="app.diagrams.net" modified="2024-04-26T10:29:41.854Z" agent="Mozilla/5.0 (Windows NT 10.0; Win64; x64) AppleWebKit/537.36 (KHTML, like Gecko) Chrome/124.0.0.0 Safari/537.36" version="24.2.8" etag="aab9lQoR08dZnL_C6fQh" type="github">
  <diagram name="Page-1" id="iI7un4LWna_f_hDFNoUM">
    <mxGraphModel>
      <root>
        <mxCell id="0" />
        <mxCell id="1" parent="0" />
      </root>
    </mxGraphModel>
  </diagram>
</mxfile>
